<svg id="Layer_1" data-name="Layer 1" xmlns="http://www.w3.org/2000/svg" viewBox="0 0 52.96 74.14">
  <style>
    * {
      fill: #fff
    }
  </style>
  <path class="cls-1" d="M514,1555.63a6.81,6.81,0,1,1,6.81,6.81A6.81,6.81,0,0,1,514,1555.63Z" transform="translate(-513.96 -1548.82)"/>
  <path class="cls-1" d="M514,1576.63a6.81,6.81,0,1,1,6.81,6.81A6.81,6.81,0,0,1,514,1576.63Z" transform="translate(-513.96 -1548.82)"/>
  <path class="cls-1" d="M514,1596.63a6.81,6.81,0,1,1,6.81,6.81A6.81,6.81,0,0,1,514,1596.63Z" transform="translate(-513.96 -1548.82)"/>
  <path class="cls-1" d="M533.67,1555.63a6.81,6.81,0,1,1,6.81,6.81A6.81,6.81,0,0,1,533.67,1555.63Z" transform="translate(-513.96 -1548.82)"/>
  <path class="cls-1" d="M553.3,1555.63a6.81,6.81,0,1,1
    ,6.81,6.81A6.81,6.81,0,0,1,553.3,1555.63Z" transform="translate(-513.96 -1548.82)"/>
  <path class="cls-1" d="M533.67,1576.74a6.81,6.81,0,1,
    1,6.81,6.81A6.81,6.81,0,0,1,533.67,1576.74Z" transform="translate(-513.96 -1548.82)"/>
  <path class="cls-1" d="M553.3,1576.74a6.81,6.81,0,1,1
    ,6.81,6.81A6.81,6.81,0,0,1,553.3,1576.74Z" transform="translate(-513.96 -1548.82)"/>
  <path class="cls-1" d="M533.67,1596.44a6.81,6.81,0,1,
    1,6.81,6.81A6.81,6.81,0,0,1,533.67,1596.44Z" transform="translate(-513.96 -1548.82)"/>
  <path class="cls-1" d="M553.3,1596.44a6.81,6.81,0,1,1
    ,6.81,6.81A6.81,6.81,0,0,1,553.3,1596.44Z" transform="translate(-513.96 -1548.82)"/>
  <path class="cls-1" d="M533.67,1616.14a6.81,6.81,0,1,
    1,6.81,6.81A6.81,6.81,0,0,1,533.67,1616.14Z" transform="translate(-513.96 -1548.82)"/>
</svg>